<?xml version="1.0" encoding="UTF-8" standalone="no"?>
<svg
   xmlns:dc="http://purl.org/dc/elements/1.1/"
   xmlns:cc="http://creativecommons.org/ns#"
   xmlns:rdf="http://www.w3.org/1999/02/22-rdf-syntax-ns#"
   xmlns:svg="http://www.w3.org/2000/svg"
   xmlns="http://www.w3.org/2000/svg"
   xmlns:sodipodi="http://sodipodi.sourceforge.net/DTD/sodipodi-0.dtd"
   xmlns:inkscape="http://www.inkscape.org/namespaces/inkscape"
   width="720"
   height="720"
   id="svg10567"
   version="1.1"
   inkscape:version="0.48.4 r9939"
   sodipodi:docname="stepper_orientation_left.svg">
  <metadata
     id="metadata10842">
    <rdf:RDF>
      <cc:Work
         rdf:about="">
        <dc:format>image/svg+xml</dc:format>
        <dc:type
           rdf:resource="http://purl.org/dc/dcmitype/StillImage" />
        <dc:title />
      </cc:Work>
    </rdf:RDF>
  </metadata>
  <sodipodi:namedview
     pagecolor="#ffffff"
     bordercolor="#666666"
     borderopacity="1"
     objecttolerance="10"
     gridtolerance="10"
     guidetolerance="10"
     inkscape:pageopacity="0"
     inkscape:pageshadow="2"
     inkscape:window-width="1440"
     inkscape:window-height="838"
     id="namedview10840"
     showgrid="false"
     inkscape:zoom="0.8625"
     inkscape:cx="221.44928"
     inkscape:cy="360"
     inkscape:window-x="-8"
     inkscape:window-y="-8"
     inkscape:window-maximized="1"
     inkscape:current-layer="g10654" />
  <desc
     id="desc10569">C:\Users\eford\Documents\GitHub\Shapeoko_2\Drawings_DXF\26029-01.idw.dxf - scale = 1.000000</desc>
  <defs
     id="defs10571">
    <marker
       refY="0"
       refX="0"
       style="overflow:visible"
       id="DistanceX"
       orient="auto">
      <path
         style="stroke:#000000;stroke-width:0.5"
         d="M 3,-3 -3,3 M 0,-5 0,5"
         id="path10574"
         inkscape:connector-curvature="0" />
    </marker>
    <pattern
       height="8"
       width="8"
       patternUnits="userSpaceOnUse"
       y="0"
       x="0"
       id="Hatch">
      <path
         linecap="square"
         stroke="#000000"
         stroke-width="0.25"
         d="M8 4 l-4,4"
         id="path10577" />
      <path
         linecap="square"
         stroke="#000000"
         stroke-width="0.25"
         d="M6 2 l-4,4"
         id="path10579" />
      <path
         linecap="square"
         stroke="#000000"
         stroke-width="0.25"
         d="M4 0 l-4,4"
         id="path10581" />
    </pattern>
    <symbol
       id="*Model_Space" />
    <symbol
       id="*Paper_Space" />
    <symbol
       id="*Paper_Space0" />
  </defs>
  <g
     inkscape:label="0"
     inkscape:groupmode="layer"
     id="g10586"
     transform="translate(0,-332.36218)" />
  <g
     inkscape:label="Hidden (ANSI)"
     inkscape:groupmode="layer"
     id="g10588"
     transform="translate(0,-332.36218)" />
  <g
     inkscape:label="Visible (ANSI)"
     inkscape:groupmode="layer"
     id="g10654"
     transform="translate(0,-332.36218)">
    <path
       style="fill:none;stroke:#000000"
       d="m 452.81693,733.96574 0,16.04604"
       id="path10656"
       inkscape:connector-curvature="0" />
    <path
       style="fill:none;stroke:#000000"
       d="m 452.81693,733.96574 a 9.45,9.45 0 1 0 -18.75085,-1.59111"
       id="path10658"
       inkscape:connector-curvature="0" />
    <path
       style="fill:none;stroke:#000000"
       d="m 434.2149,750.08991 -0.14882,-17.71528"
       id="path10660"
       inkscape:connector-curvature="0" />
    <path
       style="fill:none;stroke:#000000"
       d="m 434.2149,750.08991 a 9.301181,9.301181 0 0 0 18.60203,-0.0781"
       id="path10662"
       inkscape:connector-curvature="0" />
    <path
       style="fill:none;stroke:#000000"
       d="m 285.78544,733.96574 0,16.04604"
       id="path10664"
       inkscape:connector-curvature="0" />
    <path
       style="fill:none;stroke:#000000"
       d="m 285.78544,733.96574 a 9.45,9.45 0 1 0 -18.75086,-1.59111"
       id="path10666"
       inkscape:connector-curvature="0" />
    <path
       style="fill:none;stroke:#000000"
       d="m 267.1834,750.08991 -0.14882,-17.71528"
       id="path10668"
       inkscape:connector-curvature="0" />
    <path
       style="fill:none;stroke:#000000"
       d="m 267.1834,750.08991 a 9.301181,9.301181 0 0 0 18.60204,-0.0781"
       id="path10670"
       inkscape:connector-curvature="0" />
    <path
       style="fill:none;stroke:#000000"
       d="m 452.81693,566.93424 0,16.04605"
       id="path10672"
       inkscape:connector-curvature="0" />
    <path
       style="fill:none;stroke:#000000"
       d="m 452.81693,566.93424 a 9.45,9.45 0 1 0 -18.75085,-1.59111"
       id="path10674"
       inkscape:connector-curvature="0" />
    <path
       style="fill:none;stroke:#000000"
       d="m 434.2149,583.05842 -0.14882,-17.71529"
       id="path10676"
       inkscape:connector-curvature="0" />
    <path
       style="fill:none;stroke:#000000"
       d="m 434.2149,583.05842 a 9.301181,9.301181 0 0 0 18.60203,-0.0781"
       id="path10678"
       inkscape:connector-curvature="0" />
    <path
       style="fill:none;stroke:#000000"
       d="m 285.78544,566.93424 0,16.04605"
       id="path10680"
       inkscape:connector-curvature="0" />
    <path
       style="fill:none;stroke:#000000"
       d="m 285.78544,566.93424 a 9.45,9.45 0 1 0 -18.75086,-1.59111"
       id="path10682"
       inkscape:connector-curvature="0" />
    <path
       style="fill:none;stroke:#000000"
       d="m 267.1834,583.05842 -0.14882,-17.71529"
       id="path10684"
       inkscape:connector-curvature="0" />
    <path
       style="fill:none;stroke:#000000"
       d="m 267.1834,583.05842 a 9.301181,9.301181 0 0 0 18.60204,-0.0781"
       id="path10686"
       inkscape:connector-curvature="0" />
    <path
       style="fill:none;stroke:#000000"
       d="m 263.00196,497.48029 a 9.301181,9.301181 0 1 0 -18.60235,0 9.301181,9.301181 0 1 0 18.60235,0 z"
       id="path10688"
       inkscape:connector-curvature="0" />
    <path
       style="fill:none;stroke:#000000"
       d="m 475.6004,497.48029 a 9.30119,9.30119 0 1 0 -18.60238,0 9.30119,9.30119 0 0 0 18.60238,0 z"
       id="path10690"
       inkscape:connector-curvature="0" />
    <path
       style="fill:none;stroke:#000000"
       d="m 271.41731,913.37596 177.16536,0"
       id="path10692"
       inkscape:connector-curvature="0" />
    <path
       style="fill:none;stroke:#000000"
       d="m 271.41731,913.37596 a 9.301181,9.301181 0 0 0 0,18.60236"
       id="path10694"
       inkscape:connector-curvature="0" />
    <path
       style="fill:none;stroke:#000000"
       d="m 448.58267,931.97832 -177.16536,0"
       id="path10696"
       inkscape:connector-curvature="0" />
    <path
       style="fill:none;stroke:#000000"
       d="m 448.58267,931.97832 a 9.301181,9.301181 0 0 0 0,-18.60236"
       id="path10698"
       inkscape:connector-curvature="0" />
    <path
       style="fill:none;stroke:#000000"
       d="m 620.21162,807.51966 a 5.536417,5.536417 0 0 0 11.07282,0"
       id="path10700"
       inkscape:connector-curvature="0" />
    <path
       style="fill:none;stroke:#000000"
       d="m 631.28444,764.99997 0,42.51969"
       id="path10702"
       inkscape:connector-curvature="0" />
    <path
       style="fill:none;stroke:#000000"
       d="m 631.28444,764.99997 a 5.536417,5.536417 0 0 0 -11.07282,0"
       id="path10704"
       inkscape:connector-curvature="0" />
    <path
       style="fill:none;stroke:#000000"
       d="m 620.21162,807.51966 0,-42.51969"
       id="path10706"
       inkscape:connector-curvature="0" />
    <path
       style="fill:none;stroke:#000000"
       d="m 88.71555,807.51966 0,-42.51969"
       id="path10708"
       inkscape:connector-curvature="0" />
    <path
       style="fill:none;stroke:#000000"
       d="m 88.71555,807.51966 a 5.53642,5.53642 0 0 0 11.07284,0"
       id="path10710"
       inkscape:connector-curvature="0" />
    <path
       style="fill:none;stroke:#000000"
       d="m 99.78839,764.99997 0,42.51969"
       id="path10712"
       inkscape:connector-curvature="0" />
    <path
       style="fill:none;stroke:#000000"
       d="m 99.78839,764.99997 a 5.53642,5.53642 0 1 0 -11.07284,0"
       id="path10714"
       inkscape:connector-curvature="0" />
    <path
       style="fill:none;stroke:#000000"
       d="m 192.13583,695.19682 a 9.3011825,9.3011825 0 1 0 -18.60236,0 9.3011825,9.3011825 0 0 0 18.60236,0 z"
       id="path10716"
       inkscape:connector-curvature="0" />
    <path
       style="fill:none;stroke:#000000"
       d="m 546.46653,695.19682 a 9.301181,9.301181 0 1 0 -18.60235,0 9.301181,9.301181 0 1 0 18.60235,0 z"
       id="path10718"
       inkscape:connector-curvature="0" />
    <path
       style="fill:none;stroke:#000000"
       d="m 192.13583,913.11021 a 9.3011825,9.3011825 0 1 0 -18.60236,0 9.3011825,9.3011825 0 0 0 18.60236,0 z"
       id="path10720"
       inkscape:connector-curvature="0" />
    <path
       style="fill:none;stroke:#000000"
       d="m 546.46653,913.11021 a 9.301181,9.301181 0 1 0 -18.60235,0 9.301181,9.301181 0 1 0 18.60235,0 z"
       id="path10722"
       inkscape:connector-curvature="0" />
    <path
       style="fill:none;stroke:#000000"
       d="m 76.53543,946.86021 a 11.25,11.25 0 0 0 11.25,11.25"
       id="path10724"
       inkscape:connector-curvature="0" />
    <path
       style="fill:none;stroke:#000000"
       d="m 79.14294,636.08356 a 11.25,11.25 0 0 0 -2.60751,7.20207"
       id="path10726"
       inkscape:connector-curvature="0" />
    <path
       style="fill:none;stroke:#000000"
       d="m 632.21457,958.11021 a 11.25,11.25 0 0 0 11.25,-11.25"
       id="path10728"
       inkscape:connector-curvature="0" />
    <path
       style="fill:none;stroke:#000000"
       d="m 643.46457,643.28563 a 11.25,11.25 0 0 0 -2.60751,-7.20207"
       id="path10730"
       inkscape:connector-curvature="0" />
    <path
       style="fill:none;stroke:#000000"
       d="m 258.97001,426.61415 a 11.25,11.25 0 0 0 -8.64249,4.04792"
       id="path10732"
       inkscape:connector-curvature="0" />
    <path
       style="fill:none;stroke:#000000"
       d="m 469.67249,430.66207 a 11.25,11.25 0 0 0 -8.6425,-4.04792"
       id="path10734"
       inkscape:connector-curvature="0" />
    <path
       style="fill:none;stroke:#000000"
       d="m 76.53543,946.86021 0,-303.57458"
       id="path10736"
       inkscape:connector-curvature="0" />
    <path
       style="fill:none;stroke:#000000"
       d="m 643.46457,643.28563 0,303.57458"
       id="path10738"
       inkscape:connector-curvature="0" />
    <path
       style="fill:none;stroke:#000000"
       d="M 469.67249,430.66207 640.85706,636.08356"
       id="path10740"
       inkscape:connector-curvature="0" />
    <path
       style="fill:none;stroke:#000000"
       d="M 79.14294,636.08356 250.32752,430.66207"
       id="path10742"
       inkscape:connector-curvature="0" />
    <path
       style="fill:none;stroke:#000000"
       d="m 258.97001,426.61415 202.05999,0"
       id="path10744"
       inkscape:connector-curvature="0" />
    <path
       style="fill:none;stroke:#000000"
       d="m 632.21457,958.11021 -544.42914,0"
       id="path10746"
       inkscape:connector-curvature="0" />
    <path
       style="fill:none;stroke:#000000"
       d="m 430.86613,542.21454 -141.73228,0"
       id="path10748"
       inkscape:connector-curvature="0" />
    <path
       style="fill:none;stroke:#000000"
       d="m 430.86613,542.21454 a 9.301181,9.301181 0 0 0 0,-18.60236"
       id="path10750"
       inkscape:connector-curvature="0" />
    <path
       style="fill:none;stroke:#000000"
       d="m 289.13385,523.61218 141.73228,0"
       id="path10752"
       inkscape:connector-curvature="0" />
    <path
       style="fill:none;stroke:#000000"
       d="m 289.13385,523.61218 a 9.301181,9.301181 0 1 0 0,18.60236"
       id="path10754"
       inkscape:connector-curvature="0" />
    <path
       style="fill:none;stroke:#000000"
       d="m 430.86613,471.3484 -141.73228,0"
       id="path10756"
       inkscape:connector-curvature="0" />
    <path
       style="fill:none;stroke:#000000"
       d="m 430.86613,471.3484 a 9.3011815,9.3011815 0 0 0 0,-18.60236"
       id="path10758"
       inkscape:connector-curvature="0" />
    <path
       style="fill:none;stroke:#000000"
       d="m 289.13385,452.74604 141.73228,0"
       id="path10760"
       inkscape:connector-curvature="0" />
    <path
       style="fill:none;stroke:#000000"
       d="m 289.13385,452.74604 a 9.3011815,9.3011815 0 1 0 0,18.60236"
       id="path10762"
       inkscape:connector-curvature="0" />
    <path
       style="fill:none;stroke:#000000"
       d="m 475.6004,689.52753 a 9.30119,9.30119 0 1 0 -18.60238,0 9.30119,9.30119 0 0 0 18.60238,0 z"
       id="path10764"
       inkscape:connector-curvature="0" />
    <path
       style="fill:none;stroke:#000000"
       d="m 263.00196,689.52753 a 9.301181,9.301181 0 1 0 -18.60235,0 9.301181,9.301181 0 1 0 18.60235,0 z"
       id="path10766"
       inkscape:connector-curvature="0" />
    <path
       style="fill:none;stroke:#000000"
       d="m 409.14213,739.11257 a 5.757875,5.757875 0 0 0 11.51575,0"
       id="path10768"
       inkscape:connector-curvature="0" />
    <path
       style="fill:none;stroke:#000000"
       d="m 420.65787,703.6795 0,35.43307"
       id="path10770"
       inkscape:connector-curvature="0" />
    <path
       style="fill:none;stroke:#000000"
       d="m 420.65787,703.6795 a 5.757875,5.757875 0 1 0 -11.51575,0"
       id="path10772"
       inkscape:connector-curvature="0" />
    <path
       style="fill:none;stroke:#000000"
       d="m 409.14213,739.11257 0,-35.43307"
       id="path10774"
       inkscape:connector-curvature="0" />
    <path
       style="fill:none;stroke:#000000"
       d="m 299.34213,739.11257 a 5.757875,5.757875 0 0 0 11.51575,0"
       id="path10776"
       inkscape:connector-curvature="0" />
    <path
       style="fill:none;stroke:#000000"
       d="m 310.85787,703.6795 0,35.43307"
       id="path10778"
       inkscape:connector-curvature="0" />
    <path
       style="fill:none;stroke:#000000"
       d="m 310.85787,703.6795 a 5.757875,5.757875 0 1 0 -11.51575,0"
       id="path10780"
       inkscape:connector-curvature="0" />
    <path
       style="fill:none;stroke:#000000"
       d="m 299.34213,739.11257 0,-35.43307"
       id="path10782"
       inkscape:connector-curvature="0" />
    <path
       style="fill:none;stroke:#000000"
       d="m 409.14213,629.31257 a 5.757875,5.757875 0 0 0 11.51575,0"
       id="path10784"
       inkscape:connector-curvature="0" />
    <path
       style="fill:none;stroke:#000000"
       d="m 420.65787,593.8795 0,35.43307"
       id="path10786"
       inkscape:connector-curvature="0" />
    <path
       style="fill:none;stroke:#000000"
       d="m 420.65787,593.8795 a 5.757875,5.757875 0 1 0 -11.51575,0"
       id="path10788"
       inkscape:connector-curvature="0" />
    <path
       style="fill:none;stroke:#000000"
       d="m 409.14213,629.31257 0,-35.43307"
       id="path10790"
       inkscape:connector-curvature="0" />
    <path
       style="fill:none;stroke:#000000"
       d="m 319.25196,684.21257 0,-35.43307"
       id="path10792"
       inkscape:connector-curvature="0" />
    <path
       style="fill:none;stroke:#000000"
       d="m 319.25196,684.21257 a 40.748031,40.748031 0 0 0 81.49606,0"
       id="path10794"
       inkscape:connector-curvature="0" />
    <path
       style="fill:none;stroke:#000000"
       d="m 400.74802,648.7795 0,35.43307"
       id="path10796"
       inkscape:connector-curvature="0" />
    <path
       style="fill:none;stroke:#000000"
       d="m 400.74802,648.7795 a 40.748031,40.748031 0 1 0 -81.49606,0"
       id="path10798"
       inkscape:connector-curvature="0" />
    <path
       style="fill:none;stroke:#000000"
       d="m 310.85787,593.8795 0,35.43307"
       id="path10800"
       inkscape:connector-curvature="0" />
    <path
       style="fill:none;stroke:#000000"
       d="m 310.85787,593.8795 a 5.757875,5.757875 0 1 0 -11.51575,0"
       id="path10802"
       inkscape:connector-curvature="0" />
    <path
       style="fill:none;stroke:#000000"
       d="m 299.34213,629.31257 0,-35.43307"
       id="path10804"
       inkscape:connector-curvature="0" />
    <path
       style="fill:none;stroke:#000000"
       d="m 299.34213,629.31257 a 5.757875,5.757875 0 0 0 11.51575,0"
       id="path10806"
       inkscape:connector-curvature="0" />
    <path
       style="fill:none;stroke:#000000"
       d="m 620.68109,913.11021 a 12.649607,12.649607 0 1 0 -25.29921,0 12.649607,12.649607 0 0 0 25.29921,0 z"
       id="path10808"
       inkscape:connector-curvature="0" />
    <path
       style="fill:none;stroke:#000000"
       d="m 617.33268,684.21257 a 9.3011815,9.3011815 0 1 0 -18.60236,0 9.3011815,9.3011815 0 0 0 18.60236,0 z"
       id="path10810"
       inkscape:connector-curvature="0" />
    <path
       style="fill:none;stroke:#000000"
       d="m 124.61811,913.11021 a 12.649607,12.649607 0 1 0 -25.29921,0 12.649607,12.649607 0 0 0 25.29921,0 z"
       id="path10812"
       inkscape:connector-curvature="0" />
    <path
       style="fill:none;stroke:#000000"
       d="m 121.26969,684.21257 a 9.301185,9.301185 0 1 0 -18.60237,0 9.301185,9.301185 0 0 0 18.60237,0 z"
       id="path10814"
       inkscape:connector-curvature="0" />
    <g
       id="g12906"
       transform="matrix(0,-2.0713357,2.0713357,0,-1287.114,220.93103)">
      <g
         transform="matrix(0.72929469,0,0,0.72929469,-255.4736,450.96641)"
         id="g33183">
        <rect
           style="fill:#808080;stroke-width:1.39999998;stroke-linecap:round;stroke-miterlimit:4;stroke-dasharray:none"
           id="rect33145"
           width="82.832512"
           height="82.832512"
           x="27.626005"
           y="431.19016"
           rx="10"
           ry="10" />
        <path
           sodipodi:type="arc"
           style="fill:#000000;stroke-width:1.39999998;stroke-linecap:round;stroke-miterlimit:4;stroke-dasharray:none"
           id="path33147"
           sodipodi:cx="72.62915"
           sodipodi:cy="181.60645"
           sodipodi:rx="8.9895363"
           sodipodi:ry="5.5558391"
           d="m 81.618687,181.60645 c 0,3.0684 -4.024753,5.55583 -8.989537,5.55583 -4.964783,0 -8.989536,-2.48743 -8.989536,-5.55583 0,-3.06841 4.024753,-5.55584 8.989536,-5.55584 4.964784,0 8.989537,2.48743 8.989537,5.55584 z"
           transform="matrix(0.55620222,0,0,0.89995407,28.645767,309.16896)" />
      </g>
      <g
         id="g40007"
         transform="translate(-587.4667,110.67559)">
        <path
           style="fill:none;stroke:#000000;stroke-width:2.18788409;stroke-linecap:butt;stroke-linejoin:miter;stroke-miterlimit:4;stroke-opacity:1;stroke-dasharray:none"
           d="m 375.36009,654.76376 c 0,-22.66023 -0.13023,-22.79046 -0.13023,-22.79046"
           id="path33149"
           inkscape:connector-curvature="0" />
        <path
           style="fill:none;stroke:#008000;stroke-width:2.18788409;stroke-linecap:butt;stroke-linejoin:miter;stroke-miterlimit:4;stroke-opacity:1;stroke-dasharray:none"
           d="m 379.1585,654.76376 c 0,-22.66023 -0.13023,-22.79046 -0.13023,-22.79046"
           id="path33149-4"
           inkscape:connector-curvature="0" />
        <path
           style="fill:none;stroke:#ff0000;stroke-width:2.18788409;stroke-linecap:butt;stroke-linejoin:miter;stroke-miterlimit:4;stroke-opacity:1;stroke-dasharray:none"
           d="m 382.9569,654.76376 c 0,-22.66023 -0.13023,-22.79046 -0.13023,-22.79046"
           id="path33149-9"
           inkscape:connector-curvature="0" />
        <path
           style="fill:none;stroke:#0000ff;stroke-width:2.18788409;stroke-linecap:butt;stroke-linejoin:miter;stroke-miterlimit:4;stroke-opacity:1;stroke-dasharray:none"
           d="m 386.75532,654.76376 c 0,-22.66023 -0.13023,-22.79046 -0.13023,-22.79046"
           id="path33149-2"
           inkscape:connector-curvature="0" />
      </g>
    </g>
  </g>
</svg>
